<?xml version="1.0" encoding="UTF-8" standalone="no"?>
<svg
   viewBox="0 0 640 512"
   version="1.1"
   id="svg890"
   sodipodi:docname="code_color.svg"
   inkscape:version="1.1.1 (eb90963e84, 2021-10-02)"
   xmlns:inkscape="http://www.inkscape.org/namespaces/inkscape"
   xmlns:sodipodi="http://sodipodi.sourceforge.net/DTD/sodipodi-0.dtd"
   xmlns="http://www.w3.org/2000/svg"
   xmlns:svg="http://www.w3.org/2000/svg">
  <defs
     id="defs894" />
  <sodipodi:namedview
     id="namedview892"
     pagecolor="#505050"
     bordercolor="#eeeeee"
     borderopacity="1"
     inkscape:pageshadow="0"
     inkscape:pageopacity="0"
     inkscape:pagecheckerboard="0"
     showgrid="false"
     inkscape:zoom="2.2792969"
     inkscape:cx="320.05484"
     inkscape:cy="256"
     inkscape:window-width="2560"
     inkscape:window-height="1376"
     inkscape:window-x="0"
     inkscape:window-y="27"
     inkscape:window-maximized="1"
     inkscape:current-layer="g888" />
  <g
     id="g888">
    <path
       d="M422.12 18.16a12 12 0 0 1 8.2 14.9l-136.5 470.2a12 12 0 0 1-14.89 8.2l-61-17.7a12 12 0 0 1-8.2-14.9l136.5-470.2a12 12 0 0 1 14.89-8.2z"
       id="path884"
       style="stroke-width:1.0015748;stroke-miterlimit:4;stroke-dasharray:none;fill:#51b7ff;fill-opacity:1" />
    <path
       d="M636.23 247.26l-144.11-135.2a12.11 12.11 0 0 0-17 .5L431.62 159a12 12 0 0 0 .81 17.2L523 256l-90.59 79.7a11.92 11.92 0 0 0-.81 17.2l43.5 46.4a12 12 0 0 0 17 .6l144.11-135.1a11.94 11.94 0 0 0 .02-17.54zm-427.8-88.2l-43.5-46.4a12 12 0 0 0-17-.5l-144.11 135a11.94 11.94 0 0 0 0 17.5l144.11 135.1a11.92 11.92 0 0 0 17-.5l43.5-46.4a12 12 0 0 0-.81-17.2L117 256l90.6-79.7a11.92 11.92 0 0 0 .83-17.24z"
       id="path886"
       style="fill:#f1f1f1;fill-opacity:0.72941178" />
  </g>
</svg>
