<?xml version="1.0" encoding="iso-8859-1"?>
<!-- Generator: Adobe Illustrator 19.0.0, SVG Export Plug-In . SVG Version: 6.00 Build 0)  -->
<svg version="1.1" id="Layer_1" xmlns="http://www.w3.org/2000/svg" xmlns:xlink="http://www.w3.org/1999/xlink" x="0px" y="0px"
	 viewBox="0 0 504 504" style="enable-background:new 0 0 504 504;" xml:space="preserve">
<g>
	<g>
		<rect x="21.704" y="410.464" width="460.224" height="16"/>
	</g>
</g>
<g>
	<g>
		<rect x="21.704" y="488" width="460.224" height="16"/>
	</g>
</g>
<g>
	<g>
		<path d="M291.336,0c-29.296,0-53.104,24.112-53.104,53.712c0,29.6,23.824,53.712,53.104,53.712
			c29.28,0,53.136-24.112,53.136-53.712C344.472,24.112,320.632,0,291.336,0z M291.336,91.424
			c-20.464,0-37.104-16.912-37.104-37.712c0-20.8,16.64-37.712,37.104-37.712c20.48,0,37.136,16.912,37.136,37.712
			C328.472,74.512,311.816,91.424,291.336,91.424z"/>
	</g>
</g>
<g>
	<g>
		<path d="M392.568,134.656l-5.632-5.6L285.128,229.744L164.6,82.64L2.968,290.176l12.624,9.84l149.344-191.76L320.2,297.76
			l12.368-10.128l-37.248-45.456l91.584-90.592c21.76,21.6,99.424,98.656,102.752,102.032l11.376-11.248
			C497.16,238.448,392.568,134.656,392.568,134.656z"/>
	</g>
</g>
<g>
</g>
<g>
</g>
<g>
</g>
<g>
</g>
<g>
</g>
<g>
</g>
<g>
</g>
<g>
</g>
<g>
</g>
<g>
</g>
<g>
</g>
<g>
</g>
<g>
</g>
<g>
</g>
<g>
</g>
</svg>
